<?xml version="1.0" standalone="no"?><!DOCTYPE svg PUBLIC "-//W3C//DTD SVG 1.1//EN" "http://www.w3.org/Graphics/SVG/1.1/DTD/svg11.dtd"><svg t="1762156088744" class="icon" viewBox="0 0 1024 1024" version="1.1" xmlns="http://www.w3.org/2000/svg" p-id="16398" xmlns:xlink="http://www.w3.org/1999/xlink" width="64" height="64"><path d="M423.69219 4.827429C222.671238 4.827429 59.684571 167.082667 59.684571 367.323429c0 200.240762 162.986667 362.520381 364.007619 362.520381 201.020952 0 364.007619-162.279619 364.00762-362.520381 0-200.240762-162.986667-362.496-364.00762-362.496z m0 60.952381c167.399619 0 303.055238 135.046095 303.055239 301.543619 0 166.521905-135.655619 301.568-303.055239 301.568-167.424 0-303.055238-135.070476-303.055238-301.568 0-166.521905 135.631238-301.543619 303.055238-301.543619z" fill="#8B7355" p-id="16399"></path><path d="M361.71581 103.619048a30.47619 30.47619 0 0 1 13.06819 59.562666 210.115048 210.115048 0 0 0-154.940952 141.165715 30.47619 30.47619 0 1 1-58.09981-18.407619 271.067429 271.067429 0 0 1 199.972572-182.296381zM843.50781 483.547429a30.47619 30.47619 0 0 1 58.758095 16.237714 498.151619 498.151619 0 0 1-182.345143 265.947428 30.47619 30.47619 0 1 1-36.473905-48.835047 437.199238 437.199238 0 0 0 160.060953-233.350095zM423.740952 244.345905c68.096 0 123.367619 55.02781 123.367619 122.977524 0 67.925333-55.271619 122.977524-123.367619 122.977523-68.144762 0-123.416381-55.05219-123.416381-122.977523a30.47619 30.47619 0 0 1 60.781715-3.120762l0.170666 3.120762a62.244571 62.244571 0 0 0 62.439619 62.025142c34.523429 0 62.415238-27.794286 62.415239-62.025142a62.22019 62.22019 0 0 0-62.415239-62.025143 30.47619 30.47619 0 1 1 0-60.952381z" fill="#8B7355" p-id="16400"></path><path d="M888.441905 350.305524a85.138286 85.138286 0 0 0-85.284572 85.016381 85.138286 85.138286 0 0 0 85.260191 85.016381c47.055238 0 85.284571-38.034286 85.284571-85.016381a85.138286 85.138286 0 0 0-85.284571-85.016381z m0 60.952381c13.458286 0 24.30781 10.800762 24.307809 24.064a24.185905 24.185905 0 0 1-24.33219 24.064 24.185905 24.185905 0 0 1-24.30781-24.064c0-13.263238 10.849524-24.064 24.30781-24.064zM646.704762 622.982095l75.410286 115.809524c2.584381 3.949714 4.193524 8.43581 4.754285 13.092571l0.195048 3.535239v162.157714c0 54.320762-43.105524 98.889143-96.865524 101.546667l-5.071238 0.121904H222.281143a102.058667 102.058667 0 0 1-101.839238-96.597333l-0.146286-5.071238v-162.157714c0-4.778667 1.145905-9.48419 3.267048-13.726477l1.779809-3.072 39.424-59.66019 50.858667 33.596952-34.377143 52.004572v153.014857c0 21.113905 16.603429 38.765714 37.497905 40.545524l3.535238 0.170666H625.127619c21.308952 0 39.009524-16.530286 40.838095-37.229714l0.146286-3.486476-0.024381-153.136762-70.460952-108.178286 51.078095-33.28z" fill="#8B7355" p-id="16401"></path><path d="M244.736 856.624762a39.862857 39.862857 0 1 0 0 79.701333 39.862857 39.862857 0 0 0 0-79.725714z m0 18.748952a21.089524 21.089524 0 1 1 0 42.179048 21.089524 21.089524 0 0 1 0-42.179048zM601.088 856.624762a39.862857 39.862857 0 1 0 0 79.701333 39.862857 39.862857 0 0 0 0-79.725714z m0 18.748952a21.089524 21.089524 0 1 1 0 42.179048 21.089524 21.089524 0 0 1 0-42.179048zM413.549714 331.483429a39.862857 39.862857 0 1 0 0 79.725714 39.862857 39.862857 0 0 0 0-79.725714z m0 18.773333a21.089524 21.089524 0 1 1 0 42.179048 21.089524 21.089524 0 0 1 0-42.179048z" fill="#8B7355" p-id="16402"></path></svg>